<?xml version="1.0" encoding="utf-8"?>
<!-- Generator: Adobe Illustrator 18.1.1, SVG Export Plug-In . SVG Version: 6.00 Build 0)  -->
<svg version="1.0" xmlns="http://www.w3.org/2000/svg" xmlns:xlink="http://www.w3.org/1999/xlink" x="0px" y="0px"
	 viewBox="0 0 283 76.5" enable-background="new 0 0 283 76.5" xml:space="preserve">
<g id="Calque_1">
</g>
<g id="Calque_4">
</g>
<g id="Calque_7">
</g>
<g id="Calque_5">
</g>
<g id="Calque_2">
</g>
<g id="Calque_6">
</g>
<g id="Calque_3">
	<path id="XMLID_132_" fill="#034EA2" d="M48.1,7.5H4c-1.7,0-2.7,1.4-2.7,3v63.1c0,1.6,1,2.9,2.7,2.9h275.5c1.7,0,2.8-1.3,2.8-2.9
		V10.6c0-1.6-1.1-3-2.8-3H48.1"/>
	<path id="XMLID_131_" fill="#FFFFFF" stroke="#034EA2" stroke-width="2.9087" stroke-miterlimit="10" d="M49.1,1H5.5
		C3.8,1,2.8,2.5,2.8,4.1v64.6c0,1.7,1,3,2.7,3H278c1.7,0,2.8-1.3,2.8-3V4.1c0-1.7-1.1-3.1-2.8-3.1H49.1"/>
	<g>
		<path fill="#034EA2" d="M102.7,30.7c-1,0.6-2.4,0.8-3.9,0.8c-1,0-2.4,0-3.8-0.2v-1.8c1.2,0.1,2.4,0.2,3.6,0.2c1,0,2-0.1,2.6-0.4
			c0.8-0.3,1.2-1.1,1.2-2.1c0-1.3-0.6-1.9-1.9-2.3c-0.8-0.3-1.6-0.5-2.4-0.7c-2-0.6-3.2-1.7-3.2-3.9c0-1.3,0.5-2.6,1.6-3.3
			c1.1-0.7,2.3-0.8,3.7-0.8c1,0,2.2,0.1,3.5,0.2v1.7c-1.2-0.1-2.4-0.2-3.3-0.2c-0.9,0-1.7,0-2.3,0.3c-0.8,0.4-1.1,1.2-1.1,2
			c0,1.2,0.6,1.8,1.7,2.2c0.7,0.2,1.5,0.4,2.4,0.7c2.2,0.6,3.4,1.7,3.4,4.1C104.4,28.5,104,29.9,102.7,30.7z"/>
		<path fill="#034EA2" d="M106.6,21.6c0.8-2,1.4-3.8,1.9-5.7h2.1c-0.6,2.1-1.5,4.1-2.2,5.7H106.6z"/>
		<path fill="#034EA2" d="M113.3,17.9v-2h2.1v2H113.3z M115.3,31.2h-1.8V20.4h1.9L115.3,31.2L115.3,31.2z"/>
		<path fill="#034EA2" d="M126.4,31.2l-0.1-0.6c-1.2,0.4-2.5,0.9-3.8,0.9c-1.2,0-2.2-0.4-3-1.2c-1-1-1.4-2.5-1.4-4.5
			c0-2.1,0.7-3.8,1.8-4.7c0.9-0.7,2.1-1,3.5-1c0.9,0,1.9,0.2,2.6,0.5v-4.7h1.9v15.3H126.4z M126.1,29.2v-7c-0.7-0.3-1.6-0.5-2.4-0.5
			c-2.3,0-3.6,1.2-3.6,4.1c0,2.9,1.2,4.1,2.9,4.1C124.1,29.9,125.1,29.5,126.1,29.2z"/>
		<path fill="#034EA2" d="M135.7,31.5c-1.2,0-2.5-0.3-3.4-1.2c-1-1.1-1.4-2.6-1.4-4.5c0-1.8,0.4-3.5,1.6-4.6
			c0.9-0.7,1.9-1.1,3.4-1.1c1.2,0,2.4,0.3,3.3,1.1c1.3,1.1,1.4,2.8,1.4,5h-7.8c0.1,2.5,1.2,3.7,3.3,3.7c1.3,0,2.6-0.3,4.1-0.6v1.5
			C138.8,31.1,137.2,31.5,135.7,31.5z M135.8,21.5c-2.1,0-2.8,1.3-2.9,3.4h5.8C138.6,22.6,137.9,21.5,135.8,21.5z"/>
		<path fill="#034EA2" d="M151.2,31.2v-6.9c0-1.9-1-2.6-2.6-2.6c-0.9,0-1.9,0.3-3.2,0.7v8.7h-1.9V20.4h1.6l0.1,0.6
			c1.3-0.4,2.7-0.9,4-0.9c1.2,0,2.3,0.3,3.1,1.2c0.7,0.8,0.8,1.8,0.8,3v6.9H151.2z"/>
		<path fill="#034EA2" d="M160.2,31.5c-1.2,0-2.4-0.4-2.9-1.8c-0.3-0.8-0.4-1.8-0.4-2.9v-4.8h-1.8v-1.5h1.8l0.2-3.3h1.7v3.3h3.2v1.5
			h-3.2v4.6c0,0.8,0,1.5,0.2,2.1c0.2,0.9,0.7,1.3,1.7,1.3c0.5,0,1.1-0.1,1.6-0.2v1.5C161.6,31.3,160.9,31.5,160.2,31.5z"/>
		<path fill="#034EA2" d="M164.8,17.9v-2h2.1v2H164.8z M166.7,31.2h-1.8V20.4h1.9L166.7,31.2L166.7,31.2z"/>
		<path fill="#034EA2" d="M177.7,31.2v-9.2h-5v9.2h-1.9v-9.2H169v-1.5h1.8c0-1.6,0.3-2.9,1.3-3.8c0.9-0.8,2.2-1,4-1
			c1,0,2,0.1,2.9,0.2v1.6c-0.9-0.1-1.9-0.1-2.9-0.1c-2.8,0-3.4,1-3.4,3.2h6.9v10.8H177.7z"/>
		<path fill="#034EA2" d="M187.3,31.5c-1.2,0-2.5-0.3-3.4-1.2c-1-1.1-1.4-2.6-1.4-4.5c0-1.8,0.4-3.5,1.6-4.6
			c0.9-0.7,1.9-1.1,3.4-1.1c1.2,0,2.4,0.3,3.3,1.1c1.3,1.1,1.4,2.8,1.4,5h-7.8c0.1,2.5,1.2,3.7,3.3,3.7c1.3,0,2.6-0.3,4.1-0.6v1.5
			C190.4,31.1,188.8,31.5,187.3,31.5z M187.4,21.5c-2.1,0-2.8,1.3-2.9,3.4h5.8C190.2,22.6,189.5,21.5,187.4,21.5z"/>
		<path fill="#034EA2" d="M195.2,31.2V20.4h1.6l0.1,0.7c1.6-0.6,2.5-1,3.8-1c0,0,0.1,0,0.2,0v1.7c-0.1,0-0.3,0-0.4,0
			c-1.1,0-1.9,0.2-3.4,0.7v8.7H195.2z"/>
		<path fill="#034EA2" d="M216.2,31.2l0-0.6c-1.4,0.4-2.6,0.9-3.9,0.9c-0.9,0-1.8-0.2-2.5-0.9c-0.7-0.6-1-1.4-1-2.5
			c0-1.1,0.4-2.2,1.5-2.8c0.8-0.4,1.7-0.5,2.8-0.5c0.8,0,1.9,0.1,2.9,0.1v-0.5c0-2.1-0.9-2.8-3.3-2.8c-0.9,0-1.8,0.1-2.7,0.2v-1.5
			c1-0.1,2-0.2,3-0.2c1.4,0,2.9,0.1,3.8,1.1c0.9,0.9,1.1,2.1,1.1,3.6v6.5H216.2z M215.9,26.3c-0.9-0.1-2-0.1-2.8-0.1
			c-1.9,0-2.6,0.7-2.6,1.9c0,1.1,0.8,1.9,2.2,1.9c1,0,2.1-0.3,3.2-0.7V26.3z"/>
		<path fill="#034EA2" d="M223.8,31.2l-4.1-10.8h2.1l3.2,8.9h0.1l3.2-8.9h2l-4.1,10.8H223.8z"/>
		<path fill="#034EA2" d="M236.1,31.5c-1.2,0-2.5-0.3-3.4-1.2c-1-1.1-1.4-2.6-1.4-4.5c0-1.8,0.4-3.5,1.6-4.6
			c0.9-0.7,1.9-1.1,3.4-1.1c1.2,0,2.4,0.3,3.3,1.1c1.3,1.1,1.4,2.8,1.4,5h-7.8c0.1,2.5,1.2,3.7,3.3,3.7c1.3,0,2.6-0.3,4.1-0.6v1.5
			C239.1,31.1,237.5,31.5,236.1,31.5z M236.1,21.5c-2.1,0-2.8,1.3-2.9,3.4h5.8C239,22.6,238.2,21.5,236.1,21.5z"/>
		<path fill="#034EA2" d="M247.5,31.5c-1.1,0-2.3-0.3-3.1-1.2c-1-1.1-1.4-2.6-1.4-4.5c0-1.8,0.5-3.7,1.9-4.7c1-0.8,2.3-1,3.6-1
			c0.8,0,1.6,0.1,2.6,0.2v1.6c-0.8-0.1-1.6-0.2-2.4-0.2c-2.6,0-3.6,1.3-3.6,4.1c0,2.5,1,4.1,3.1,4.1c0.9,0,2.1-0.3,3.1-0.6v1.6
			C250,31.2,248.7,31.5,247.5,31.5z"/>
		<path fill="#034EA2" d="M98.2,48.7v5.8h-2.5V39.9h9.5v2.1h-7v4.8h6.1v2H98.2z"/>
		<path fill="#034EA2" d="M108.4,54.5V43.7h2l0.1,0.7c1.5-0.6,2.5-1,3.9-1c0,0,0.1,0,0.3,0v2.1c-0.2,0-0.4,0-0.6,0
			c-1,0-1.9,0.2-3.3,0.7v8.4H108.4z"/>
		<path fill="#034EA2" d="M123.6,54.5l0-0.6c-1.4,0.5-2.6,0.9-4,0.9c-0.9,0-1.8-0.2-2.5-0.9c-0.7-0.6-1-1.4-1-2.5
			c0-1.2,0.4-2.3,1.6-2.9c0.8-0.4,1.7-0.5,2.8-0.5c0.8,0,1.9,0,2.8,0.1v-0.4c0-1.9-0.7-2.5-3.1-2.5c-0.9,0-1.9,0.1-2.8,0.2v-1.8
			c1-0.1,2.2-0.2,3.2-0.2c1.5,0,3,0.1,4,1c1,0.9,1.1,2.1,1.1,3.6v6.5H123.6z M123.3,49.7c-0.8-0.1-1.8-0.1-2.5-0.1
			c-1.8,0-2.4,0.6-2.4,1.7c0,1,0.7,1.8,2,1.8c0.9,0,1.9-0.3,2.9-0.6V49.7z"/>
		<path fill="#034EA2" d="M137.6,54.5v-6.8c0-1.8-0.9-2.4-2.4-2.4c-0.8,0-1.8,0.2-2.9,0.7v8.5h-2.3V43.7h2l0.1,0.6
			c1.4-0.4,2.7-0.9,4-0.9c1.2,0,2.3,0.3,3.1,1.2c0.7,0.8,0.9,1.8,0.9,3.1v6.8H137.6z"/>
		<path fill="#034EA2" d="M147.6,54.8c-1.1,0-2.3-0.3-3.2-1.2c-1-1-1.4-2.6-1.4-4.4c0-1.8,0.5-3.6,1.9-4.7c1-0.8,2.3-1,3.7-1
			c0.8,0,1.7,0.1,2.7,0.2v1.9c-0.7-0.1-1.6-0.1-2.4-0.1c-2.4,0-3.4,1.2-3.4,3.8c0,2.3,0.9,3.8,2.9,3.8c0.9,0,2.1-0.3,3.1-0.6v1.8
			C150.2,54.5,148.9,54.8,147.6,54.8z"/>
		<path fill="#034EA2" d="M158.3,54.8c-1.2,0-2.5-0.3-3.5-1.2c-1-1-1.4-2.6-1.4-4.5c0-1.8,0.4-3.5,1.6-4.6c0.9-0.8,2-1.1,3.5-1.1
			c1.2,0,2.5,0.3,3.4,1.1c1.3,1.2,1.5,2.8,1.5,5.1h-7.6c0,2.3,1.1,3.4,3.1,3.4c1.3,0,2.7-0.3,4.1-0.6v1.8
			C161.5,54.4,159.9,54.8,158.3,54.8z M158.4,45c-1.9,0-2.5,1.2-2.6,3.1h5.3C161,46,160.3,45,158.4,45z"/>
		<path fill="#034EA2" d="M172.1,54.8c-1.5,0-3.1-0.4-4.3-1.6c-1.4-1.4-1.9-3.5-1.9-6c0-2.4,0.7-4.8,2.5-6.3
			c1.4-1.1,3.1-1.3,4.9-1.3c1.1,0,2.2,0.1,3.4,0.2v2.1c-1-0.1-2.2-0.2-3.2-0.2c-3.8,0-5.1,2.1-5.1,5.5c0,3.3,1.4,5.4,4.3,5.4
			c1.3,0,2.9-0.4,4.3-0.8v2.1C175.4,54.4,173.7,54.8,172.1,54.8z"/>
		<path fill="#034EA2" d="M181.2,53.7c-1.1-0.9-1.6-2.5-1.6-4.6s0.5-3.6,1.6-4.6c1-0.9,2.3-1.1,3.8-1.1c1.4,0,2.7,0.3,3.8,1.1
			c1.1,0.9,1.6,2.5,1.6,4.6c0,2.1-0.5,3.6-1.6,4.6c-1,0.9-2.3,1.1-3.8,1.1S182.2,54.5,181.2,53.7z M187.9,49.1c0-2.6-0.9-3.9-3-3.9
			c-2.2,0-3,1.2-3,3.8c0,2.6,0.9,4,3,4C187.1,53,187.9,51.8,187.9,49.1z"/>
		<path fill="#034EA2" d="M201.3,54.5v-6.8c0-1.8-0.9-2.4-2.4-2.4c-0.8,0-1.8,0.2-2.9,0.7v8.5h-2.3V43.7h2l0.1,0.6
			c1.4-0.4,2.7-0.9,4-0.9c1.2,0,2.3,0.3,3.1,1.2c0.7,0.8,0.9,1.8,0.9,3.1v6.8H201.3z"/>
		<path fill="#034EA2" d="M215.5,54.5v-6.8c0-1.8-0.9-2.4-2.4-2.4c-0.8,0-1.8,0.2-2.9,0.7v8.5h-2.3V43.7h2l0.1,0.6
			c1.4-0.4,2.7-0.9,4-0.9c1.2,0,2.3,0.3,3.1,1.2c0.7,0.8,0.9,1.8,0.9,3.1v6.8H215.5z"/>
		<path fill="#034EA2" d="M225.8,54.8c-1.2,0-2.5-0.3-3.5-1.2c-1-1-1.4-2.6-1.4-4.5c0-1.8,0.4-3.5,1.6-4.6c0.9-0.8,2-1.1,3.5-1.1
			c1.2,0,2.5,0.3,3.4,1.1c1.3,1.2,1.5,2.8,1.5,5.1h-7.6c0,2.3,1.1,3.4,3.1,3.4c1.3,0,2.7-0.3,4.1-0.6v1.8
			C229.1,54.4,227.4,54.8,225.8,54.8z M226,45c-1.9,0-2.5,1.2-2.6,3.1h5.3C228.6,46,227.9,45,226,45z"/>
		<path fill="#034EA2" d="M238.1,54.8c-1.1,0-2.3-0.3-3.2-1.2c-1-1-1.4-2.6-1.4-4.4c0-1.8,0.5-3.6,1.9-4.7c1-0.8,2.3-1,3.7-1
			c0.8,0,1.7,0.1,2.7,0.2v1.9c-0.7-0.1-1.6-0.1-2.4-0.1c-2.4,0-3.4,1.2-3.4,3.8c0,2.3,0.9,3.8,2.9,3.8c0.9,0,2.1-0.3,3.1-0.6v1.8
			C240.7,54.5,239.4,54.8,238.1,54.8z"/>
		<path fill="#034EA2" d="M248.8,54.8c-1.2,0-2.3-0.4-2.9-1.7c-0.4-0.8-0.5-1.8-0.5-3v-4.6h-1.7v-1.8h1.7l0.3-3.3h2.1v3.3h3.1v1.8
			h-3.1v4.2c0,0.8,0,1.5,0.2,2c0.2,0.8,0.7,1.1,1.6,1.1c0.5,0,1.1-0.1,1.6-0.2v1.8C250.3,54.6,249.5,54.8,248.8,54.8z"/>
	</g>
	<g>
		<path id="XMLID_102_" fill="none" stroke="#034EA2" stroke-width="3" stroke-miterlimit="10" d="M18.3,19.2v34.3l29.8,17.2
			l30.2-17.2V23.3v-4.1L48.1,2L18.3,19.2z"/>
	</g>
	<g>
		<g>
			<path fill="#EA212E" d="M39.3,18.3C39.3,18.3,39.2,18.3,39.3,18.3C39.3,18.2,39.3,18.2,39.3,18.3z"/>
		</g>
		<path id="XMLID_101_" fill="#0069CC" d="M47.7,63L24.9,49.9c-0.3-0.2-0.5-0.5-0.5-0.8V23.3c0-0.3,0.2-0.7,0.5-0.8L47.7,9.3"/>
		<path id="XMLID_88_" fill="#ED1C24" d="M47.7,63l-9.9-5.7c-0.1-0.1-0.2-0.2-0.2-0.3V46.2c0-0.1,0.1-0.3,0.2-0.3l9.9-5.8"/>
		<g>
			<path id="XMLID_87_" fill="#034EA2" d="M24.5,49.1l-0.1-25.8c0-0.3,0.2-0.7,0.5-0.8L47.7,9.3"/>
		</g>
		<g>
			<polygon fill="#ED1C24" points="25,22.3 32,36.5 40.1,22.5 33.2,17.6 			"/>
		</g>
		<g>
			<path fill="#EA212E" d="M56.1,18.3C56.2,18.3,56.2,18.3,56.1,18.3C56.2,18.2,56.1,18.2,56.1,18.3z"/>
		</g>
		<g>
			<path id="XMLID_78_" fill="#034EA2" d="M47.8,63l22.7-13.1c0.3-0.2,0.5-0.5,0.5-0.8V23.3c0-0.3-0.2-0.7-0.5-0.8L47.7,9.3"/>
		</g>
		<g>
			<path id="XMLID_77_" fill="#ED1C24" d="M70.9,49.1L71,23.3c0-0.3-0.2-0.7-0.5-0.8L47.7,9.3"/>
		</g>
		<g>
			<polygon fill="#0053CC" points="70.3,22.3 63.5,36.3 55.3,22.3 62.1,17.6 			"/>
		</g>
		<path fill="#FFFFFF" d="M52.9,54c0.3-0.2,0.7-0.2,1-0.3c1.2,0,2.5,0.3,3.7,0.4c0.1,0,0.3,0.1,0.4,0.1c0.4,0.1,1,0,1.4-0.1
			c0.5-0.2,1.1-0.5,1.3-1.1c0.2-0.5,0.3-1.1,0-1.6c-0.5-0.6,0.4-0.9,0.7-1.3c0.2-0.4-0.2-0.6-0.2-0.9c-0.1-0.1-0.4-0.1-0.5-0.3
			c0.5-0.2,1.3-0.7,0.9-1.3c-0.2-0.4-0.6-0.9-0.2-1.3c0.5-0.3,1.3-0.3,1.5-0.8c0.3-0.9-0.5-1.6-0.9-2.3c-0.2-0.4-0.5-0.7-0.8-1.1
			c-0.3-0.5-0.7-0.9-0.8-1.5c-0.2-0.6,0-1.1,0-1.7c0-1.1-0.3-2.2-0.6-3.3c-0.2-0.5-0.3-1.1-0.6-1.6c-0.1-0.3-0.2-0.6-0.4-0.9
			c-0.1-0.1-0.1-0.4,0-0.5c0.3-0.2,0.6-0.5,0.9-0.8c0.2-0.4,0-0.9-0.3-1.1c-0.5-0.2-0.4,0.5-0.8,0.7c-0.1,0-0.1,0-0.2,0
			c-0.1-0.2,0.1-0.3,0.2-0.4c0-0.1,0-0.2-0.1-0.2c-0.3,0-0.6-0.1-0.7-0.2c-0.8-1-1.8-1.5-2.9-1.9c0.3,0.1,0.6,0.1,0.9,0.1
			c0.5,0.1,1.1,0,1.5-0.2c0.4-0.2,0.4-0.7,0.6-1.1c0.1-0.3-0.1-0.7-0.2-0.9c-0.4-0.5-6.3-7-19.3-0.7l0,0c-0.5,0.2-1.7,0.8-2.3,1.5
			c-0.6,0.7-1.1,1.5-1.3,2.4c-0.9,0.6-1.5,1.5-2,2.4c-0.6,1.3-1.5,2.4-1.4,3.8c0.2,1.2,0.5,2.3,0.8,3.5c0.1,0.4,0.2,0.8,0.3,1.2
			c0.2,0.4,0,1,0.3,1.3c0.2,0.2,0.1,0.5,0.4,0.6c0,0.1,0,0.2,0,0.3c0.1,0.1,0.1,0.1,0.2,0.1c0,0.1,0,0.2,0,0.3
			c0.6,0.7,1.4,1.4,1.7,2.1c0.2,0.4-0.7,0.2-1.1,0.1c-0.7-0.3-1.2-0.9-1.8-1.4c0,0-0.1,0.1-0.1,0.1c0.3,0.5,1.4,1.1,0.8,1.5
			c-0.3,0.2-0.7-0.2-0.9,0.1c-0.1,0.1,0,0.3,0,0.4c-0.4-0.3-0.9-0.1-1.3-0.3c-0.3-0.1-0.4-0.6-0.7-0.6c-1-0.2-1.8-0.4-2.8-0.4
			c-1.3-0.1-2.6-0.3-3.9,0c-1.2,0.1-2,1-2.7,1.9c0,0.1,0,0.2,0,0.2c0.5,0.1,0.7-0.4,1.2-0.5c0.7-0.2,1.4-0.5,2.1-0.6
			c1.1-0.2,2.1-0.6,3.1-0.5c0.2,0,0.5-0.1,0.7,0c-1.3,0-2.5,0.4-3.7,0.8c-0.9,0.3-1.7,0.3-2.5,0.8c1.9-0.1,3.8,0.1,5.7,0.7
			c0.7,0.2,1.3,0.5,1.9,0.8c0.3,0.2,0.5,0.4,0.7,0.6c0.4,0.2,0.9,0.2,1.2,0c0.1,0,0.3,0,0.4,0c1.1-0.3,2.3-0.6,3-1.5
			c0,0.1,0.1,0.1,0.1,0.1c-0.2,0.6-0.2,1.2-0.6,1.8c0,0.1-0.1,0.2,0.1,0.3c0.1,0,0.1,0,0.1,0c-0.1,0-0.1,0-0.1,0.1
			c0,0.1,0.2,0,0.3,0.1c-0.4,0.1-0.7,0.2-0.9,0.5c0,0.1,0.1,0.1,0.2,0.1c-0.1,0.2-0.4,0.1-0.4,0.2c0,0,0.1,0.1,0.1,0.1
			c-0.1,0-0.1,0-0.1,0.1c0,0.1,0,0.1,0,0.2c-0.2,0-0.3,0.2-0.4,0.2c0.3,0.2,0.5,0,0.8,0c-0.8,0.3-1.4,0.8-2.2,1
			c-0.1,0,0,0.2-0.1,0.2c0.2,0.1,0.4-0.1,0.6-0.1c-1,0.6-2,1.2-3.1,1.8c0,0-0.1,0.2-0.1,0.3c-0.1,0-0.2,0-0.3,0
			c-0.1,0.1-0.1,0.3-0.2,0.4c0.4,0.2,0.8-0.3,1,0c0.1,0-0.1,0.1-0.3,0.1c-0.1,0-0.1,0.1-0.1,0.2c-0.1,0-0.1,0-0.2,0
			c-0.1,0.2-0.3,0.2-0.3,0.4c-0.1,0-0.3,0-0.4,0.2c1.6-0.3,3.3-0.2,4.8-1c1.2-0.6,2.2-1.5,3.2-2.5c0,0,0.1,0.1,0.1,0.1
			c-0.2,0.7-0.6,1.3-1.2,1.7c-0.4,0.2-0.7,0.6-1.1,0.8c-0.2,0.2-0.4,0.3-0.6,0.5c-2.5,1-3.4,2.4-2.4,2.3c0.6,0,1.2,0,1.8-0.1
			c0.4-0.1,0.9-0.4,1.3-0.5c0,0.1,0,0.1,0,0.1c1.1-0.5,1.9-1.4,3-1.8c0.1,0,0.2,0.1,0.4,0.1c0.6-0.6,1.4-1.3,2.3-1.2
			c0,0.1,0,0.1,0.1,0.1c0,0,0,0,0.1,0c0,0,0.1,0,0.1-0.1c0,0.1,0,0.1-0.1,0.1c-0.3,0.2-0.5,0.4-0.8,0.6c-0.1,0.1,0,0.1,0.1,0.1
			c0.4-0.2,0.6-0.5,0.9-0.6c-0.1,0.1-0.1,0.2-0.1,0.3c-1.3,1-2.2,2.1-3.2,3.3l9.6,6C45.7,63.4,51.6,55.3,52.9,54z M56.1,38.4
			c0.4-0.1,0.7-0.3,1.1-0.3c0.4-0.1,0.9-0.2,1.2-0.1c0.4,0.1,1,0.1,1,0.3c0.2,0.4-0.2,0.9-0.6,1.2c-0.1,0.1,0.2,0.2,0.2,0.4
			c-0.1,0.1-0.3,0.2-0.4,0.2c-0.1,0.1-0.3,0.3-0.4,0.5c0.1,0,0,0.2,0.2,0.2c-0.3,0.4,0.2,1.1-0.3,1.3c-0.5,0.2-1.1,0.2-1.7,0
			c0.3-0.1,0.7,0.1,0.9-0.2c0-0.1,0-0.2,0-0.3c0-0.1-0.1-0.1-0.1-0.1c-0.1,0.1-0.1,0.1-0.1,0.1c0-0.1-0.2-0.3-0.2-0.3
			c-0.4,0.1-0.8-0.1-1.1-0.4c0.2-0.1,0.4-0.2,0.7-0.1c0.2,0,0.1-0.4,0.4-0.5c0.1,0,0.1,0,0.2,0c0.4-0.6,1.3-0.8,1.4-1.4
			c0-0.1-0.4-0.1-0.7-0.2c-0.4-0.1-0.8,0-1.2,0c-0.6,0.2-1.1,0.2-1.6,0.5C55.2,38.9,55.6,38.6,56.1,38.4z"/>
	</g>
</g>
</svg>
