<?xml version="1.0" encoding="utf-8"?>
<!-- Generator: Adobe Illustrator 18.1.1, SVG Export Plug-In . SVG Version: 6.00 Build 0)  -->
<svg version="1.0" xmlns="http://www.w3.org/2000/svg" xmlns:xlink="http://www.w3.org/1999/xlink" x="0px" y="0px"
	 viewBox="0 0 283 76.5" enable-background="new 0 0 283 76.5" xml:space="preserve">
<g id="Calque_1">
</g>
<g id="Calque_4">
</g>
<g id="Calque_7">
</g>
<g id="Calque_5">
</g>
<g id="Calque_2">
</g>
<g id="Calque_6">
	<g>
		<path id="XMLID_76_" fill="#1B1464" d="M47.6,6.8H3.6c-1.7,0-2.7,1.4-2.7,3v63.1c0,1.6,1,2.9,2.7,2.9H279c1.7,0,2.8-1.3,2.8-2.9
			V9.9c0-1.6-1.1-3-2.8-3H47.6"/>
		<path id="XMLID_56_" fill="#FFFFFF" d="M17.8,18.5v34.3L47.7,70l30.2-17.2V22.6v-4.1L47.6,1.3L17.8,18.5z"/>
		<path id="XMLID_55_" fill="#034EA2" d="M279,1.3H47.6l30.2,17.3v34.3L47.7,70L17.8,52.9V18.5L47.6,1.3H3.6c-1.7,0-2.7,1.4-2.7,3
			v63.1c0,1.6,1,2.9,2.7,2.9H279c1.7,0,2.8-1.3,2.8-2.9V4.3C281.8,2.7,280.7,1.3,279,1.3z"/>
		<g>
			<path fill="#FFFFFF" d="M102.2,30c-1,0.6-2.4,0.8-3.9,0.8c-1,0-2.4,0-3.8-0.2v-1.8c1.2,0.1,2.4,0.2,3.6,0.2c1,0,2-0.1,2.6-0.4
				c0.8-0.3,1.2-1.1,1.2-2.1c0-1.3-0.6-1.9-1.9-2.3c-0.8-0.3-1.6-0.5-2.4-0.7c-2-0.6-3.2-1.7-3.2-3.9c0-1.3,0.5-2.6,1.6-3.3
				c1.1-0.7,2.3-0.8,3.7-0.8c1,0,2.2,0.1,3.5,0.2v1.7c-1.2-0.1-2.4-0.2-3.3-0.2c-0.9,0-1.7,0-2.3,0.3c-0.8,0.4-1.1,1.2-1.1,2
				c0,1.2,0.6,1.8,1.7,2.2c0.7,0.2,1.5,0.4,2.4,0.7c2.2,0.6,3.4,1.7,3.4,4.1C104,27.8,103.5,29.2,102.2,30z"/>
			<path fill="#FFFFFF" d="M106.1,20.9c0.8-2,1.4-3.8,1.9-5.7h2.1c-0.6,2.1-1.5,4.1-2.2,5.7H106.1z"/>
			<path fill="#FFFFFF" d="M112.9,17.2v-2h2.1v2H112.9z M114.8,30.5H113V19.7h1.9L114.8,30.5L114.8,30.5z"/>
			<path fill="#FFFFFF" d="M126,30.5l-0.1-0.6c-1.2,0.4-2.5,0.9-3.8,0.9c-1.2,0-2.2-0.4-3-1.2c-1-1-1.4-2.5-1.4-4.5
				c0-2.1,0.7-3.8,1.8-4.7c0.9-0.7,2.1-1,3.5-1c0.9,0,1.9,0.2,2.6,0.5v-4.7h1.9v15.3H126z M125.7,28.5v-7c-0.7-0.3-1.6-0.5-2.4-0.5
				c-2.3,0-3.6,1.2-3.6,4.1c0,2.9,1.2,4.1,2.9,4.1C123.7,29.2,124.7,28.8,125.7,28.5z"/>
			<path fill="#FFFFFF" d="M135.3,30.8c-1.2,0-2.5-0.3-3.4-1.2c-1-1.1-1.4-2.6-1.4-4.5c0-1.8,0.4-3.5,1.6-4.6
				c0.9-0.7,1.9-1.1,3.4-1.1c1.2,0,2.4,0.3,3.3,1.1c1.3,1.1,1.4,2.8,1.4,5h-7.8c0.1,2.5,1.2,3.7,3.3,3.7c1.3,0,2.6-0.3,4.1-0.6v1.5
				C138.4,30.4,136.8,30.8,135.3,30.8z M135.4,20.8c-2.1,0-2.8,1.3-2.9,3.4h5.8C138.2,21.9,137.4,20.8,135.4,20.8z"/>
			<path fill="#FFFFFF" d="M150.8,30.5v-6.9c0-1.9-1-2.6-2.6-2.6c-0.9,0-1.9,0.3-3.2,0.7v8.7h-1.9V19.7h1.6l0.1,0.6
				c1.3-0.4,2.7-0.9,4-0.9c1.2,0,2.3,0.3,3.1,1.2c0.7,0.8,0.8,1.8,0.8,3v6.9H150.8z"/>
			<path fill="#FFFFFF" d="M159.8,30.8c-1.2,0-2.4-0.4-2.9-1.8c-0.3-0.8-0.4-1.8-0.4-2.9v-4.8h-1.8v-1.5h1.8l0.2-3.3h1.7v3.3h3.2
				v1.5h-3.2v4.6c0,0.8,0,1.5,0.2,2.1c0.2,0.9,0.7,1.3,1.7,1.3c0.5,0,1.1-0.1,1.6-0.2v1.5C161.2,30.6,160.4,30.8,159.8,30.8z"/>
			<path fill="#FFFFFF" d="M164.3,17.2v-2h2.1v2H164.3z M166.3,30.5h-1.8V19.7h1.9L166.3,30.5L166.3,30.5z"/>
			<path fill="#FFFFFF" d="M177.3,30.5v-9.2h-5v9.2h-1.9v-9.2h-1.8v-1.5h1.8c0-1.6,0.3-2.9,1.3-3.8c0.9-0.8,2.2-1,4-1
				c1,0,2,0.1,2.9,0.2v1.6c-0.9-0.1-1.9-0.1-2.9-0.1c-2.8,0-3.4,1-3.4,3.2h6.9v10.8H177.3z"/>
			<path fill="#FFFFFF" d="M186.9,30.8c-1.2,0-2.5-0.3-3.4-1.2c-1-1.1-1.4-2.6-1.4-4.5c0-1.8,0.4-3.5,1.6-4.6
				c0.9-0.7,1.9-1.1,3.4-1.1c1.2,0,2.4,0.3,3.3,1.1c1.3,1.1,1.4,2.8,1.4,5H184c0.1,2.5,1.2,3.7,3.3,3.7c1.3,0,2.6-0.3,4.1-0.6v1.5
				C190,30.4,188.4,30.8,186.9,30.8z M186.9,20.8c-2.1,0-2.8,1.3-2.9,3.4h5.8C189.8,21.9,189,20.8,186.9,20.8z"/>
			<path fill="#FFFFFF" d="M194.7,30.5V19.7h1.6l0.1,0.7c1.6-0.6,2.5-1,3.8-1c0,0,0.1,0,0.2,0v1.7c-0.1,0-0.3,0-0.4,0
				c-1.1,0-1.9,0.2-3.4,0.7v8.7H194.7z"/>
			<path fill="#FFFFFF" d="M215.8,30.5l0-0.6c-1.4,0.4-2.6,0.9-3.9,0.9c-0.9,0-1.8-0.2-2.5-0.9c-0.7-0.6-1-1.4-1-2.5
				c0-1.1,0.4-2.2,1.5-2.8c0.8-0.4,1.7-0.5,2.8-0.5c0.8,0,1.9,0.1,2.9,0.1v-0.5c0-2.1-0.9-2.8-3.3-2.8c-0.9,0-1.8,0.1-2.7,0.2v-1.5
				c1-0.1,2-0.2,3-0.2c1.4,0,2.9,0.1,3.8,1.1c0.9,0.9,1.1,2.1,1.1,3.6v6.5H215.8z M215.5,25.6c-0.9-0.1-2-0.1-2.8-0.1
				c-1.9,0-2.6,0.7-2.6,1.9c0,1.1,0.8,1.9,2.2,1.9c1,0,2.1-0.3,3.2-0.7V25.6z"/>
			<path fill="#FFFFFF" d="M223.3,30.5l-4.1-10.8h2.1l3.2,8.9h0.1l3.2-8.9h2l-4.1,10.8H223.3z"/>
			<path fill="#FFFFFF" d="M235.6,30.8c-1.2,0-2.5-0.3-3.4-1.2c-1-1.1-1.4-2.6-1.4-4.5c0-1.8,0.4-3.5,1.6-4.6
				c0.9-0.7,1.9-1.1,3.4-1.1c1.2,0,2.4,0.3,3.3,1.1c1.3,1.1,1.4,2.8,1.4,5h-7.8c0.1,2.5,1.2,3.7,3.3,3.7c1.3,0,2.6-0.3,4.1-0.6v1.5
				C238.7,30.4,237.1,30.8,235.6,30.8z M235.7,20.8c-2.1,0-2.8,1.3-2.9,3.4h5.8C238.5,21.9,237.7,20.8,235.7,20.8z"/>
			<path fill="#FFFFFF" d="M247.1,30.8c-1.1,0-2.3-0.3-3.1-1.2c-1-1.1-1.4-2.6-1.4-4.5c0-1.8,0.5-3.7,1.9-4.7c1-0.8,2.3-1,3.6-1
				c0.8,0,1.6,0.1,2.6,0.2v1.6c-0.8-0.1-1.6-0.2-2.4-0.2c-2.6,0-3.6,1.3-3.6,4.1c0,2.5,1,4.1,3.1,4.1c0.9,0,2.1-0.3,3.1-0.6v1.6
				C249.6,30.5,248.3,30.8,247.1,30.8z"/>
			<path fill="#FFFFFF" d="M97.8,48v5.8h-2.5V39.2h9.5v2.1h-7V46h6.1v2H97.8z"/>
			<path fill="#FFFFFF" d="M108,53.8V43h2l0.1,0.7c1.5-0.6,2.5-1,3.9-1c0,0,0.1,0,0.3,0v2.1c-0.2,0-0.4,0-0.6,0
				c-1,0-1.9,0.2-3.3,0.7v8.4H108z"/>
			<path fill="#FFFFFF" d="M123.2,53.8l0-0.6c-1.4,0.5-2.6,0.9-4,0.9c-0.9,0-1.8-0.2-2.5-0.9c-0.7-0.6-1-1.4-1-2.5
				c0-1.2,0.4-2.3,1.6-2.9c0.8-0.4,1.7-0.5,2.8-0.5c0.8,0,1.9,0,2.8,0.1v-0.4c0-1.9-0.7-2.5-3.1-2.5c-0.9,0-1.9,0.1-2.8,0.2v-1.8
				c1-0.1,2.2-0.2,3.2-0.2c1.5,0,3,0.1,4,1c1,0.9,1.1,2.1,1.1,3.6v6.5H123.2z M122.8,49c-0.8-0.1-1.8-0.1-2.5-0.1
				c-1.8,0-2.4,0.6-2.4,1.7c0,1,0.7,1.8,2,1.8c0.9,0,1.9-0.3,2.9-0.6V49z"/>
			<path fill="#FFFFFF" d="M137.1,53.8V47c0-1.8-0.9-2.4-2.4-2.4c-0.8,0-1.8,0.2-2.9,0.7v8.5h-2.3V43h2l0.1,0.6
				c1.4-0.4,2.7-0.9,4-0.9c1.2,0,2.3,0.3,3.1,1.2c0.7,0.8,0.9,1.8,0.9,3.1v6.8H137.1z"/>
			<path fill="#FFFFFF" d="M147.2,54.1c-1.1,0-2.3-0.3-3.2-1.2c-1-1-1.4-2.6-1.4-4.4c0-1.8,0.5-3.6,1.9-4.7c1-0.8,2.3-1,3.7-1
				c0.8,0,1.7,0.1,2.7,0.2v1.9c-0.7-0.1-1.6-0.1-2.4-0.1c-2.4,0-3.4,1.2-3.4,3.8c0,2.3,0.9,3.8,2.9,3.8c0.9,0,2.1-0.3,3.1-0.6v1.8
				C149.7,53.8,148.4,54.1,147.2,54.1z"/>
			<path fill="#FFFFFF" d="M157.8,54.1c-1.2,0-2.5-0.3-3.5-1.2c-1-1-1.4-2.6-1.4-4.5c0-1.8,0.4-3.5,1.6-4.6c0.9-0.8,2-1.1,3.5-1.1
				c1.2,0,2.5,0.3,3.4,1.1c1.3,1.2,1.5,2.8,1.5,5.1h-7.6c0,2.3,1.1,3.4,3.1,3.4c1.3,0,2.7-0.3,4.1-0.6v1.8
				C161.1,53.7,159.4,54.1,157.8,54.1z M158,44.3c-1.9,0-2.5,1.2-2.6,3.1h5.3C160.5,45.3,159.9,44.3,158,44.3z"/>
			<path fill="#FFFFFF" d="M171.6,54.1c-1.5,0-3.1-0.4-4.3-1.6c-1.4-1.4-1.9-3.5-1.9-6c0-2.4,0.7-4.8,2.5-6.3
				c1.4-1.1,3.1-1.3,4.9-1.3c1.1,0,2.2,0.1,3.4,0.2v2.1c-1-0.1-2.2-0.2-3.2-0.2c-3.8,0-5.1,2.1-5.1,5.5c0,3.3,1.4,5.4,4.3,5.4
				c1.3,0,2.9-0.4,4.3-0.8v2.1C174.9,53.7,173.2,54.1,171.6,54.1z"/>
			<path fill="#FFFFFF" d="M180.7,53c-1.1-0.9-1.6-2.5-1.6-4.6s0.5-3.6,1.6-4.6c1-0.9,2.3-1.1,3.8-1.1c1.4,0,2.7,0.3,3.8,1.1
				c1.1,0.9,1.6,2.5,1.6,4.6c0,2.1-0.5,3.6-1.6,4.6c-1,0.9-2.3,1.1-3.8,1.1S181.7,53.8,180.7,53z M187.4,48.4c0-2.6-0.9-3.9-3-3.9
				c-2.2,0-3,1.2-3,3.8c0,2.6,0.9,4,3,4C186.6,52.3,187.4,51.1,187.4,48.4z"/>
			<path fill="#FFFFFF" d="M200.9,53.8V47c0-1.8-0.9-2.4-2.4-2.4c-0.8,0-1.8,0.2-2.9,0.7v8.5h-2.3V43h2l0.1,0.6
				c1.4-0.4,2.7-0.9,4-0.9c1.2,0,2.3,0.3,3.1,1.2c0.7,0.8,0.9,1.8,0.9,3.1v6.8H200.9z"/>
			<path fill="#FFFFFF" d="M215.1,53.8V47c0-1.8-0.9-2.4-2.4-2.4c-0.8,0-1.8,0.2-2.9,0.7v8.5h-2.3V43h2l0.1,0.6
				c1.4-0.4,2.7-0.9,4-0.9c1.2,0,2.3,0.3,3.1,1.2c0.7,0.8,0.9,1.8,0.9,3.1v6.8H215.1z"/>
			<path fill="#FFFFFF" d="M225.4,54.1c-1.2,0-2.5-0.3-3.5-1.2c-1-1-1.4-2.6-1.4-4.5c0-1.8,0.4-3.5,1.6-4.6c0.9-0.8,2-1.1,3.5-1.1
				c1.2,0,2.5,0.3,3.4,1.1c1.3,1.2,1.5,2.8,1.5,5.1h-7.6c0,2.3,1.1,3.4,3.1,3.4c1.3,0,2.7-0.3,4.1-0.6v1.8
				C228.6,53.7,227,54.1,225.4,54.1z M225.5,44.3c-1.9,0-2.5,1.2-2.6,3.1h5.3C228.1,45.3,227.4,44.3,225.5,44.3z"/>
			<path fill="#FFFFFF" d="M237.7,54.1c-1.1,0-2.3-0.3-3.2-1.2c-1-1-1.4-2.6-1.4-4.4c0-1.8,0.5-3.6,1.9-4.7c1-0.8,2.3-1,3.7-1
				c0.8,0,1.7,0.1,2.7,0.2v1.9c-0.7-0.1-1.6-0.1-2.4-0.1c-2.4,0-3.4,1.2-3.4,3.8c0,2.3,0.9,3.8,2.9,3.8c0.9,0,2.1-0.3,3.1-0.6v1.8
				C240.2,53.8,238.9,54.1,237.7,54.1z"/>
			<path fill="#FFFFFF" d="M248.4,54.1c-1.2,0-2.3-0.4-2.9-1.7c-0.4-0.8-0.5-1.8-0.5-3v-4.6h-1.7V43h1.7l0.3-3.3h2.1V43h3.1v1.8
				h-3.1V49c0,0.8,0,1.5,0.2,2c0.2,0.8,0.7,1.1,1.6,1.1c0.5,0,1.1-0.1,1.6-0.2v1.8C249.9,53.9,249.1,54.1,248.4,54.1z"/>
		</g>
		<g>
			<g>
				<path fill="#EA212E" d="M38.8,17.9C38.8,17.9,38.8,17.9,38.8,17.9C38.8,17.9,38.8,17.9,38.8,17.9z"/>
			</g>
			<path id="XMLID_49_" fill="#0069CC" d="M47.2,62.6L24.5,49.5C24.2,49.4,24,49,24,48.7V22.9c0-0.3,0.2-0.7,0.5-0.8L47.3,8.9"/>
			<path id="XMLID_48_" fill="#ED1C24" d="M47.3,62.7L37.4,57c-0.1-0.1-0.2-0.2-0.2-0.3V45.8c0-0.1,0.1-0.3,0.2-0.3l9.9-5.8"/>
			<g>
				<path id="XMLID_34_" fill="#034EA2" d="M24,48.7L24,22.9c0-0.3,0.2-0.7,0.5-0.8L47.3,8.9"/>
			</g>
			<g>
				<polygon fill="#ED1C24" points="24.6,22 31.6,36.1 39.6,22.1 32.8,17.2 				"/>
			</g>
			<g>
				<path fill="#EA212E" d="M55.7,17.9C55.7,17.9,55.7,17.9,55.7,17.9C55.7,17.9,55.7,17.9,55.7,17.9z"/>
			</g>
			<g>
				<path id="XMLID_33_" fill="#034EA2" d="M47.3,62.6l22.7-13.1c0.3-0.2,0.5-0.5,0.5-0.8V22.9c0-0.3-0.2-0.7-0.5-0.8L47.3,8.9"/>
			</g>
			<g>
				<path id="XMLID_1_" fill="#ED1C24" d="M70.5,48.8l0.1-25.9c0-0.3-0.2-0.7-0.5-0.8L47.3,8.9"/>
			</g>
			<g>
				<polygon fill="#0053CC" points="69.9,22 63,35.9 54.9,21.9 61.6,17.2 				"/>
			</g>
			<path fill="#FFFFFF" d="M52.4,53.7c0.3-0.2,0.7-0.2,1-0.3c1.2,0,2.5,0.3,3.7,0.4c0.1,0,0.3,0.1,0.4,0.1c0.4,0.1,1,0,1.4-0.1
				c0.5-0.2,1.1-0.5,1.3-1.1c0.2-0.5,0.3-1.1,0-1.6c-0.5-0.6,0.4-0.9,0.7-1.3c0.2-0.4-0.2-0.6-0.2-0.9c-0.1-0.1-0.4-0.1-0.5-0.3
				c0.5-0.2,1.3-0.7,0.9-1.3c-0.2-0.4-0.6-0.9-0.2-1.3c0.5-0.3,1.3-0.3,1.5-0.8c0.3-0.9-0.5-1.6-0.9-2.3c-0.2-0.4-0.5-0.7-0.8-1.1
				c-0.3-0.5-0.7-0.9-0.8-1.5c-0.2-0.6,0-1.1,0-1.7c0-1.1-0.3-2.2-0.6-3.3c-0.2-0.5-0.3-1.1-0.6-1.6c-0.1-0.3-0.2-0.6-0.4-0.9
				c-0.1-0.1-0.1-0.4,0-0.5c0.3-0.2,0.6-0.5,0.9-0.8c0.2-0.4,0-0.9-0.3-1.1c-0.5-0.2-0.4,0.5-0.8,0.7c-0.1,0-0.1,0-0.2,0
				c-0.1-0.2,0.1-0.3,0.2-0.4c0-0.1,0-0.2-0.1-0.2c-0.3,0-0.6-0.1-0.7-0.2c-0.8-1-1.8-1.5-2.9-1.9c0.3,0.1,0.6,0.1,0.9,0.1
				c0.5,0.1,1.1,0,1.5-0.2c0.4-0.2,0.4-0.7,0.6-1.1c0.1-0.3-0.1-0.7-0.2-0.9c-0.4-0.5-6.3-7-19.3-0.7l0,0c-0.5,0.2-1.7,0.8-2.3,1.5
				c-0.6,0.7-1.1,1.5-1.3,2.4c-0.9,0.6-1.5,1.5-2,2.4c-0.6,1.3-1.5,2.4-1.4,3.8c0.2,1.2,0.5,2.3,0.8,3.5c0.1,0.4,0.2,0.8,0.3,1.2
				c0.2,0.4,0,1,0.3,1.3c0.2,0.2,0.1,0.5,0.4,0.6c0,0.1,0,0.2,0,0.3c0.1,0.1,0.1,0.1,0.2,0.1c0,0.1,0,0.2,0,0.3
				c0.6,0.7,1.4,1.4,1.7,2.1c0.2,0.4-0.7,0.2-1.1,0.1c-0.7-0.3-1.2-0.9-1.8-1.4c0,0-0.1,0.1-0.1,0.1c0.3,0.5,1.4,1.1,0.8,1.5
				c-0.3,0.2-0.7-0.2-0.9,0.1c-0.1,0.1,0,0.3,0,0.4c-0.4-0.3-0.9-0.1-1.3-0.3c-0.3-0.1-0.4-0.6-0.7-0.6c-1-0.2-1.8-0.4-2.8-0.4
				c-1.3-0.1-2.6-0.3-3.9,0c-1.2,0.1-2,1-2.7,1.9c0,0.1,0,0.2,0,0.2c0.5,0.1,0.7-0.4,1.2-0.5c0.7-0.2,1.4-0.5,2.1-0.6
				c1.1-0.2,2.1-0.6,3.1-0.5c0.2,0,0.5-0.1,0.7,0c-1.3,0-2.5,0.4-3.7,0.8c-0.9,0.3-1.7,0.3-2.5,0.8c1.9-0.1,3.8,0.1,5.7,0.7
				c0.7,0.2,1.3,0.5,1.9,0.8c0.3,0.2,0.5,0.4,0.7,0.6c0.4,0.2,0.9,0.2,1.2,0c0.1,0,0.3,0,0.4,0c1.1-0.3,2.3-0.6,3-1.5
				c0,0.1,0.1,0.1,0.1,0.1c-0.2,0.6-0.2,1.2-0.6,1.8c0,0.1-0.1,0.2,0.1,0.3c0.1,0,0.1,0,0.1,0c-0.1,0-0.1,0-0.1,0.1
				c0,0.1,0.2,0,0.3,0.1c-0.4,0.1-0.7,0.2-0.9,0.5c0,0.1,0.1,0.1,0.2,0.1c-0.1,0.2-0.4,0.1-0.4,0.2c0,0,0.1,0.1,0.1,0.1
				c-0.1,0-0.1,0-0.1,0.1c0,0.1,0,0.1,0,0.2c-0.2,0-0.3,0.2-0.4,0.2c0.3,0.2,0.5,0,0.8,0c-0.8,0.3-1.4,0.8-2.2,1
				c-0.1,0,0,0.2-0.1,0.2c0.2,0.1,0.4-0.1,0.6-0.1c-1,0.6-2,1.2-3.1,1.8c0,0-0.1,0.2-0.1,0.3c-0.1,0-0.2,0-0.3,0
				c-0.1,0.1-0.1,0.3-0.2,0.4c0.4,0.2,0.8-0.3,1,0c0.1,0-0.1,0.1-0.3,0.1c-0.1,0-0.1,0.1-0.1,0.2c-0.1,0-0.1,0-0.2,0
				c-0.1,0.2-0.3,0.2-0.3,0.4c-0.1,0-0.3,0-0.4,0.2c1.6-0.3,3.3-0.2,4.8-1c1.2-0.6,2.2-1.5,3.2-2.5c0,0,0.1,0.1,0.1,0.1
				c-0.2,0.7-0.6,1.3-1.2,1.7c-0.4,0.2-0.7,0.6-1.1,0.8c-0.2,0.2-0.4,0.3-0.6,0.5c-2.5,1-3.4,2.4-2.4,2.3c0.6,0,1.2,0,1.8-0.1
				c0.4-0.1,0.9-0.4,1.3-0.5c0,0.1,0,0.1,0,0.1c1.1-0.5,1.9-1.4,3-1.8c0.1,0,0.2,0.1,0.4,0.1c0.6-0.6,1.4-1.3,2.3-1.2
				c0,0.1,0,0.1,0.1,0.1c0,0,0,0,0.1,0c0,0,0.1,0,0.1-0.1c0,0.1,0,0.1-0.1,0.1c-0.3,0.2-0.5,0.4-0.8,0.6c-0.1,0.1,0,0.1,0.1,0.1
				c0.4-0.2,0.6-0.5,0.9-0.6c-0.1,0.1-0.1,0.2-0.1,0.3c-1.3,1-2.2,2.1-3.2,3.3l9.6,6C45.3,63.1,51.1,54.9,52.4,53.7z M55.7,38.1
				c0.4-0.1,0.7-0.3,1.1-0.3c0.4-0.1,0.9-0.2,1.2-0.1c0.4,0.1,1,0.1,1,0.3c0.2,0.4-0.2,0.9-0.6,1.2c-0.1,0.1,0.2,0.2,0.2,0.4
				c-0.1,0.1-0.3,0.2-0.4,0.2c-0.1,0.1-0.3,0.3-0.4,0.5c0.1,0,0,0.2,0.2,0.2c-0.3,0.4,0.2,1.1-0.3,1.3c-0.5,0.2-1.1,0.2-1.7,0
				c0.3-0.1,0.7,0.1,0.9-0.2c0-0.1,0-0.2,0-0.3c0-0.1-0.1-0.1-0.1-0.1c-0.1,0.1-0.1,0.1-0.1,0.1c0-0.1-0.2-0.3-0.2-0.3
				c-0.4,0.1-0.8-0.1-1.1-0.4c0.2-0.1,0.4-0.2,0.7-0.1c0.2,0,0.1-0.4,0.4-0.5c0.1,0,0.1,0,0.2,0c0.4-0.6,1.3-0.8,1.4-1.4
				c0-0.1-0.4-0.1-0.7-0.2c-0.4-0.1-0.8,0-1.2,0c-0.6,0.2-1.1,0.2-1.6,0.5C54.7,38.5,55.2,38.2,55.7,38.1z"/>
		</g>
	</g>
</g>
<g id="Calque_3">
</g>
</svg>
